<svg xmlns="http://www.w3.org/2000/svg" width="24" height="24" viewBox="0 0 24 24"><path fill="#B3CDFF" fill-rule="nonzero" d="M16.29 17.35c.015-.178.073-.39.179-.598.26-.517-.184-.584.257-1.1.322-.376.854-.192 1.119-.064a6.814 6.814 0 0 0 .973-2.854c-.288.092-.631.054-.746-.114-.197-.292-.268-1.52-.664-1.62-.396-.1-.444-.253-.527-.073-.083.18-.091.407-.268.74-.177.333-.177.214-.177.214s-.595.545-.825.044c-.231-.501-.702-1.585-.97-1.903-.268-.317-.724-.474-.96-.384-.236.09-.55.29-1.153.173-.603-.117-.718-.58-1.024-.5-.113.03-.425.194-.548.273-.212.136-.448.061-.656.03-.328-.05-.267-.672-.017-.789.25-.117.541-.087.541-.266 0-.178-.225-.315-.42-.315-.194 0-.5-.183-.121-.437.38-.253.516-.392.605-.334.09.059.357.475.408.687.05.213.576.15.497-.161-.079-.311.075-1.012.503-1.223.428-.21 1.35-.508 1.65-.254.302.254.113.575.333.575.22 0 .9-.306 1.1-.44.094-.063.274-.223.49-.32A6.825 6.825 0 0 0 12 5.144c-1.276 0-2.47.348-3.494.955l.218.482s.302.478 0 1.125c-.3.648-.646.57-.987.996-.34.425-.825.223-.982.223-.157 0-.773.398-.773.398l-.307.025a6.836 6.836 0 0 0-.528 2.89c.302.158 1.146.612 1.356.865.256.31.336.991.705.991.37 0 .85.212.85.52 0 .307-.298.625-.15.942.15.317.256.692.256.934 0 .242-.291.148.054.576.345.429 1.166 1.014 1.196 1.254a.059.059 0 0 1-.004.032 6.837 6.837 0 0 0 2.59.506 6.828 6.828 0 0 0 4.29-1.507zM12 20a8 8 0 1 1 0-16 8 8 0 0 1 0 16zm1.9-9.556c.474.153.894.5.894.73 0 .229.267 1.304.427 1.528.16.224.527.597.063 1.192-.463.594-.401.944-.513 1.52-.112.577-.72 1.154-.973 1.448-.252.294-1.019.409-1.264.26-.245-.15-.301-.644-.415-.816-.114-.173-.366-.819-.156-1.354.21-.534-.289-.978-.404-1.357-.115-.378-1.118-.012-1.786-.012-.667 0-.677-.572-.787-1.298-.083-.547 0-1.111.374-1.519.51-.556 1.107-.895 1.824-.895.717 0 1.07.738 1.521.626.452-.112.721-.207 1.195-.053z"></path></svg>